<?xml version="1.0" encoding="utf-8"?>
<!-- Generator: Adobe Illustrator 16.0.0, SVG Export Plug-In . SVG Version: 6.00 Build 0)  -->
<!DOCTYPE svg PUBLIC "-//W3C//DTD SVG 1.1//EN" "http://www.w3.org/Graphics/SVG/1.1/DTD/svg11.dtd">
<svg version="1.1" id="Layer_1" xmlns="http://www.w3.org/2000/svg" xmlns:xlink="http://www.w3.org/1999/xlink" x="0px" y="0px"
	 width="500px" height="226px" viewBox="0 0 500 226" enable-background="new 0 0 500 226" xml:space="preserve">
<path fill="#020202" d="M232.95,143.23l-5.057-45.894c-0.316-3.539-0.643-7.052-0.942-10.564c-0.324-3.51-0.594-7.052-0.811-10.56
	c-0.462,3.324-1.132,6.836-1.999,10.56c-0.864,3.701-1.948,7.671-3.214,11.911l-13.293,44.546h-24.771l-13.294-44.546
	c-1.322-4.24-2.4-8.21-3.239-11.911c-0.839-3.724-1.515-7.236-1.972-10.56c-0.271,3.568-0.543,7.103-0.835,10.589
	c-0.299,3.482-0.599,6.996-0.924,10.535l-5.048,45.894h-40.846l19.772-115.86h42.981l8.241,28.663
	c0.243,0.891,0.65,2.242,1.188,4.023c3.484,12.075,5.62,22.019,6.4,29.832h0.705c0.649-4.895,1.592-10.132,2.865-15.677
	c1.266-5.537,2.941-11.75,5.049-18.664l8.648-28.176h42.873l18.37,115.86H232.95L232.95,143.23z"/>
<polygon fill="#020202" points="317.011,143.23 317.011,27.37 359.341,27.37 359.341,143.23 317.011,143.23 "/>
<path fill="#020202" d="M404.396,130.952l12.689-30.975c5.702,3.971,10.756,6.887,15.215,8.716
	c4.465,1.831,8.638,2.761,12.508,2.761c2.738,0,4.874-0.515,6.429-1.551c1.568-1.026,2.34-2.423,2.34-4.201
	c0-3.063-3.895-5.415-11.704-7.013c-2.528-0.567-4.484-0.979-5.909-1.295c-8.253-2.009-14.569-5.593-18.957-10.728
	c-4.381-5.126-6.576-11.528-6.576-19.183c0-11.892,4.25-21.565,12.768-29.02c8.51-7.451,19.679-11.194,33.479-11.194
	c6.371,0,12.612,0.825,18.75,2.504c6.136,1.651,12.353,4.179,18.601,7.553l-12.102,28.938c-3.813-2.811-7.66-4.975-11.533-6.471
	c-3.842-1.47-7.578-2.218-11.217-2.218c-2.758,0-4.897,0.462-6.418,1.396c-1.521,0.928-2.271,2.239-2.271,3.894
	c0,3.117,5.516,5.874,16.557,8.228c1.752,0.408,3.122,0.718,4.077,0.923c7.605,1.708,13.592,5.212,17.978,10.498
	c4.39,5.291,6.573,11.684,6.573,19.192c0,12.222-4.411,22.232-13.255,29.994c-8.85,7.768-20.35,11.627-34.508,11.627
	c-7.249,0-14.492-1.023-21.745-3.089C418.889,138.176,411.645,135.079,404.396,130.952L404.396,130.952z"/>
<polygon fill="#020202" points="1.041,143.23 1.041,27.37 42.754,27.37 42.754,105.63 83.278,105.63 83.278,143.23 1.041,143.23 "/>
<polygon fill-rule="evenodd" clip-rule="evenodd" fill="#020202" points="98.276,12.761 101.926,12.761 101.926,157.743 
	98.276,157.743 98.276,12.761 "/>
<polygon fill-rule="evenodd" clip-rule="evenodd" fill="#020202" points="293.134,12.761 296.781,12.761 296.781,157.743 
	293.134,157.743 293.134,12.761 "/>
<polygon fill-rule="evenodd" clip-rule="evenodd" fill="#020202" points="380.979,12.761 384.624,12.761 384.624,157.743 
	380.979,157.743 380.979,12.761 "/>
<g>
	<g>
		<path fill="#85857E" d="M5.938,186.379v24.682h12.105v2.918H2.784v-27.6H5.938z"/>
		<path fill="#85857E" d="M42.768,186.379v2.917H27.193v9.266h13.918v2.879H27.193v9.62H43.28v2.918H24.039v-27.6H42.768z"/>
		<path fill="#85857E" d="M68.004,186.379v2.917h-9.029v24.683H55.82v-24.683h-8.99v-2.917H68.004z"/>
		<path fill="#85857E" d="M75.104,188.35c0,0.631-0.236,1.144-0.591,1.656l-1.853,2.8h-1.735l1.301-2.839
			c-0.591-0.315-0.867-0.946-0.867-1.617c0-1.144,0.789-1.971,1.853-1.971C74.236,186.379,75.104,187.128,75.104,188.35z"/>
		<path fill="#85857E" d="M90.087,189.336c-3.549,0-5.875,1.419-5.875,3.785c0,7.176,15.535,3.43,15.496,13.445
			c0,4.573-4.062,7.53-9.976,7.53c-4.021,0-7.965-1.734-10.567-4.219l1.419-2.721c2.563,2.444,6.072,3.864,9.187,3.864
			c3.982,0,6.466-1.617,6.466-4.298c0.039-7.373-15.496-3.47-15.496-13.366c0-4.337,3.825-7.098,9.542-7.098
			c3.194,0,6.467,1.025,8.753,2.563l-1.34,2.799C95.213,190.006,92.295,189.336,90.087,189.336z"/>
		<path fill="#85857E" d="M123.645,186.379l10.094,20.029l10.054-20.029h3.864v27.6h-2.917l-0.04-22.947l-10.054,20.029h-1.893
			l-10.015-20.029v22.947h-2.996v-27.6H123.645z"/>
		<path fill="#85857E" d="M174.354,206.921h-15.022l-3.075,7.058h-3.352l12.381-27.6h3.272l12.341,27.6h-3.43L174.354,206.921z
			 M173.092,204.003l-6.269-14.194l-6.19,14.194H173.092z"/>
		<path fill="#85857E" d="M204.795,213.979l-10.172-13.13l-5.362,5.914v7.216h-3.154v-27.6h3.154v16.047l14.825-16.047h3.746
			l-10.961,12.025l11.789,15.574H204.795z"/>
		<path fill="#85857E" d="M233.266,186.379v2.917h-15.574v9.266h13.918v2.879h-13.918v9.62h16.087v2.918h-19.241v-27.6H233.266z"/>
		<path fill="#78133C" d="M256.927,186.379v27.6h-3.154v-27.6H256.927z"/>
		<path fill="#78133C" d="M283.581,186.379v2.917h-9.028v24.683h-3.154v-24.683h-8.99v-2.917H283.581z"/>
		<path fill="#85857E" d="M309.726,189.336c-3.549,0-5.875,1.419-5.875,3.785c0,7.176,15.535,3.43,15.495,13.445
			c0,4.573-4.061,7.53-9.976,7.53c-4.021,0-7.964-1.734-10.566-4.219l1.42-2.721c2.563,2.444,6.071,3.864,9.187,3.864
			c3.982,0,6.466-1.617,6.466-4.298c0.04-7.373-15.495-3.47-15.495-13.366c0-4.337,3.824-7.098,9.542-7.098
			c3.193,0,6.466,1.025,8.753,2.563l-1.341,2.799C314.852,190.006,311.934,189.336,309.726,189.336z"/>
		<path fill="#85857E" d="M330.586,186.379l10.094,20.029l10.054-20.029h3.864v27.6h-2.917l-0.04-22.947l-10.054,20.029h-1.893
			l-10.016-20.029v22.947h-2.996v-27.6H330.586z"/>
		<path fill="#85857E" d="M381.296,206.921h-15.022l-3.076,7.058h-3.351l12.38-27.6h3.272l12.342,27.6h-3.431L381.296,206.921z
			 M380.034,204.003l-6.27-14.194l-6.19,14.194H380.034z"/>
		<path fill="#85857E" d="M411.106,213.979l-5.797-8.832c-0.552,0.039-1.143,0.079-1.773,0.079h-7.334v8.753h-3.154v-27.6h10.488
			c6.899,0,10.882,3.391,10.882,9.266c0,4.534-2.247,7.648-6.229,8.91l6.506,9.424H411.106z M403.536,202.308
			c5.007,0,7.846-2.247,7.846-6.585c0-4.219-2.839-6.427-7.846-6.427h-7.334v13.012H403.536z"/>
		<path fill="#85857E" d="M439.853,186.379v2.917h-9.029v24.683h-3.154v-24.683h-8.99v-2.917H439.853z"/>
		<path fill="#85857E" d="M464.025,186.379v2.917h-15.574v9.266h13.918v2.879h-13.918v9.62h16.087v2.918h-19.241v-27.6H464.025z"/>
		<path fill="#85857E" d="M489.892,213.979l-5.796-8.832c-0.552,0.039-1.144,0.079-1.774,0.079h-7.333v8.753h-3.154v-27.6h10.487
			c6.9,0,10.883,3.391,10.883,9.266c0,4.534-2.247,7.648-6.229,8.91l6.506,9.424H489.892z M482.321,202.308
			c5.008,0,7.847-2.247,7.847-6.585c0-4.219-2.839-6.427-7.847-6.427h-7.333v13.012H482.321z"/>
	</g>
</g>
<g>
</g>
<g>
</g>
<g>
</g>
<g>
</g>
<g>
</g>
<g>
</g>
</svg>
